<svg width="185" height="54" viewBox="0 0 185 54" fill="none" xmlns="http://www.w3.org/2000/svg">
<path d="M84.8102 16.7546C84.8102 18.9786 83.4758 20.7579 79.769 20.7579H73.2451V7.41356H79.9173C83.031 7.41356 84.5137 9.04453 84.5137 10.972C84.5137 12.1582 84.0688 13.3444 82.8827 13.7892C84.2171 14.3823 84.8102 15.7167 84.8102 16.7546ZM76.6553 10.2307V12.7513H79.4725C80.2138 12.7513 80.8069 12.1582 80.8069 11.4169C80.8069 10.6755 80.2138 10.2307 79.4725 10.2307H76.6553ZM81.2517 16.6063C81.2517 15.865 80.8069 15.4202 79.9173 15.4202H76.6553V17.7925H79.769C80.8069 17.7925 81.2517 17.4959 81.2517 16.6063Z" fill="#262626"/>
<path d="M98.7477 20.7579L98.4511 11.8617C98.3028 12.603 98.0063 13.4926 97.7098 14.234L95.7823 20.7579H92.372L90.2963 14.234C89.9997 13.4926 89.8514 12.603 89.5549 11.8617L89.2584 20.7579H85.8481L86.4412 7.41356H91.3341L94.003 16.6063L96.8201 7.41356H101.713L102.306 20.7579H98.7477Z" fill="#262626"/>
<path d="M122.323 7.41356C121.285 11.8617 120.099 16.1615 118.765 20.7579H114.465L112.686 12.4547L110.758 20.7579H106.458C105.124 16.1615 103.938 12.0099 102.751 7.41356H106.606C107.2 10.2307 107.941 13.3444 108.682 16.1615L110.61 7.41356H114.613L116.541 16.1615C117.282 13.1961 118.023 10.2307 118.616 7.41356H122.323Z" fill="#262626"/>
<path d="M85.5519 39.2917L85.2553 30.3955C85.107 31.1368 84.8105 32.0265 84.514 32.7678L82.4382 39.2917H79.028L76.9522 32.7678C76.6556 32.0265 76.5074 31.1368 76.2108 30.3955L75.9143 39.1434H72.6523L73.2454 25.7991H78.1383L80.8072 34.9919L83.4761 25.7991H88.369L88.9621 39.1434H85.5519V39.2917Z" fill="#262626"/>
<path d="M89.8521 32.7678C89.8521 28.468 93.4105 25.7991 97.2656 25.7991C101.121 25.7991 104.679 28.468 104.679 32.7678C104.679 37.0677 101.121 39.7365 97.2656 39.7365C93.4105 39.5882 89.8521 36.9194 89.8521 32.7678ZM100.972 32.7678C100.972 30.692 99.3414 29.0611 97.2656 29.0611C95.1898 29.0611 93.5588 30.692 93.5588 32.7678C93.5588 34.8436 95.1898 36.4746 97.2656 36.4746C99.3414 36.4746 100.972 34.8436 100.972 32.7678Z" fill="#262626"/>
<path d="M115.947 29.0609H112.092V39.2915H108.534V29.0609H104.679V26.0955H115.947V29.0609Z" fill="#262626"/>
<path d="M115.947 32.7678C115.947 28.468 119.506 25.7991 123.361 25.7991C127.216 25.7991 130.774 28.468 130.774 32.7678C130.774 37.0677 127.216 39.7365 123.361 39.7365C119.506 39.7365 115.947 36.9194 115.947 32.7678ZM127.068 32.7678C127.068 30.692 125.437 29.0611 123.361 29.0611C121.285 29.0611 119.654 30.692 119.654 32.7678C119.654 34.8436 121.285 36.4746 123.361 36.4746C125.288 36.4746 127.068 34.8436 127.068 32.7678Z" fill="#262626"/>
<path d="M143.526 39.2916L139.671 39.4399C139.374 38.6985 139.077 37.9572 138.781 37.2158C138.484 36.4745 138.04 35.8814 137.743 35.2883H135.519V39.2916H131.96V25.9473H137.743C141.45 25.9473 142.932 28.1713 142.932 30.2471C142.932 31.8781 142.191 33.0643 141.005 33.9539C141.598 34.8435 142.043 35.5849 142.488 36.4745C142.784 37.5124 143.081 38.402 143.526 39.2916ZM135.519 32.3229H137.743C138.633 32.3229 139.374 31.7298 139.374 30.6919C139.374 29.654 138.633 29.061 137.743 29.061H135.519V32.3229Z" fill="#262626"/>
<path d="M156.277 39.2916L152.422 39.4399C152.125 38.6985 151.829 37.9572 151.532 37.2158C151.236 36.4745 150.791 35.8814 150.494 35.2883H148.27V39.2916H144.712V25.9473H150.494C154.201 25.9473 155.684 28.1713 155.684 30.2471C155.684 31.8781 154.943 33.0643 153.756 33.9539C154.349 34.8435 154.794 35.5849 155.239 36.4745C155.684 37.5124 155.98 38.402 156.277 39.2916ZM148.419 32.3229H150.643C151.532 32.3229 152.274 31.7298 152.274 30.6919C152.274 29.654 151.532 29.061 150.643 29.061H148.419V32.3229Z" fill="#262626"/>
<path d="M166.507 36.771H161.614C161.318 37.6606 161.17 38.5503 161.021 39.2916H157.463C158.649 34.3987 159.983 30.0989 161.763 25.9473H166.507C168.287 30.0989 169.621 34.3987 170.807 39.2916H167.249C166.952 38.5503 166.656 37.6606 166.507 36.771ZM165.618 33.6573C165.025 31.8781 164.58 30.0989 163.987 28.7644C163.394 30.0989 162.949 31.8781 162.356 33.6573H165.618Z" fill="#262626"/>
<path d="M184.3 32.7676C184.3 36.4744 181.483 39.4398 176.738 39.4398H171.697V26.0955H176.738C181.483 26.0955 184.3 28.9126 184.3 32.7676ZM180.741 32.7676C180.741 30.3953 178.814 29.2091 176.886 29.2091H175.404V36.3261H176.886C178.814 36.3261 180.741 35.14 180.741 32.7676Z" fill="#262626"/>
<path d="M26.8369 0C12.0099 0 0 12.0099 0 26.8369C0 41.664 12.0099 53.6739 26.8369 53.6739C41.664 53.6739 53.6739 41.664 53.6739 26.8369C53.6739 12.0099 41.664 0 26.8369 0ZM51.8946 26.8369C51.8946 40.6261 40.6261 51.8946 26.8369 51.8946C13.0478 51.8946 1.77924 40.6261 1.77924 26.8369C1.77924 13.0478 12.8995 1.77924 26.8369 1.77924C40.7743 1.77924 51.8946 12.8995 51.8946 26.8369Z" fill="#262626"/>
<path d="M26.8371 10.972V11.8616C35.1402 11.8616 41.8124 18.5338 41.8124 26.8369H42.702C42.702 18.089 35.585 10.972 26.8371 10.972ZM26.8371 41.8122C18.534 41.8122 11.8618 35.1401 11.8618 26.8369H10.9722C10.9722 35.5849 18.0891 42.7018 26.8371 42.7018" fill="#262626"/>
<path d="M39.7364 15.42C40.0329 15.8648 40.626 16.4579 40.9226 16.7544L46.4086 13.3442C46.112 13.0476 45.6672 12.4546 45.3707 12.0098L41.9605 14.2338L41.6639 14.3821L41.8122 14.0855L43.2949 11.1201L42.257 10.0822L39.2916 11.5649L38.9951 11.8615L39.1433 11.5649L41.5156 8.303C41.0708 8.00646 40.7743 7.70992 40.1812 7.26511L36.771 12.7511C37.2158 13.0476 37.8089 13.6407 38.1054 13.9373L41.3674 12.3063L41.5156 12.158L39.7364 15.42Z" fill="#262626"/>
<path d="M27.4299 8.59969L28.9126 5.33774L29.0608 5.0412V5.33774L29.2091 9.78585C29.8022 9.78585 30.247 9.93412 30.8401 9.93412L30.5436 3.41023C29.8022 3.26196 29.0608 3.26196 28.3195 3.26196L26.8368 6.82045V7.11699V6.82045L25.3541 3.26196C24.6127 3.26196 23.8714 3.41023 23.13 3.41023L22.8335 9.93412C23.4266 9.78585 23.8714 9.78585 24.4645 9.78585L24.6127 5.33774V5.0412L24.761 5.33774L26.2437 8.59969H27.4299Z" fill="#262626"/>
<path d="M15.4202 13.7892C16.3098 12.8995 16.7546 11.8616 15.865 10.8237C15.5684 10.3789 14.6788 10.2307 14.0857 10.5272C14.234 10.2307 14.234 9.48931 13.4927 8.89623C13.1961 8.45142 12.7513 8.45142 12.3065 8.45142C11.5651 8.59969 10.8238 9.0445 9.19282 10.972C8.59974 11.5651 7.85839 12.4547 7.41357 13.0478L12.01 17.4959C13.6409 15.7167 14.234 15.1236 15.4202 13.7892ZM9.48936 12.7513C10.379 11.5651 11.4169 10.5272 11.8617 10.0824C12.01 9.93412 12.1582 9.78585 12.3065 9.78585C12.603 9.63758 12.8996 9.93412 13.0478 10.2307C13.0478 10.5272 12.8996 10.8237 12.7513 11.1203C12.1582 11.7134 10.379 13.6409 10.379 13.6409L9.48936 12.7513ZM11.2686 14.3822C11.2686 14.3822 13.0478 12.4547 13.6409 11.8616C13.9375 11.5651 14.0857 11.4168 14.234 11.4168C14.3823 11.2686 14.6788 11.2686 14.8271 11.4168C14.9754 11.5651 15.1236 11.7134 15.1236 12.0099C15.1236 12.3064 14.8271 12.603 14.6788 12.7513C14.3823 13.0478 12.3065 15.2719 12.3065 15.2719L11.2686 14.3822Z" fill="#262626"/>
<path d="M26.8371 10.972V26.8369H10.9722C10.9722 18.089 18.0891 10.972 26.8371 10.972Z" fill="#0066B1"/>
<path d="M42.7018 26.8369C42.7018 35.5849 35.5849 42.7018 26.8369 42.7018V26.8369H42.7018Z" fill="#0066B1"/>
</svg>
